<?xml version="1.0" encoding="utf-8"?>
<!-- Generator: Adobe Illustrator 22.0.1, SVG Export Plug-In . SVG Version: 6.00 Build 0)  -->
<svg version="1.1" id="Calque_1" xmlns="http://www.w3.org/2000/svg" xmlns:xlink="http://www.w3.org/1999/xlink" x="0px" y="0px"
	 viewBox="0 0 900 900" style="enable-background:new 0 0 900 900;" xml:space="preserve">
<style type="text/css">
	.st0{fill:#D8D8D8;}
	.st1{fill:url(#SVGID_1_);}
	.st2{fill:url(#SVGID_2_);}
	.st3{fill:url(#SVGID_3_);}
	.st4{fill:url(#SVGID_4_);}
	.st5{fill:url(#SVGID_5_);}
	.st6{fill:url(#SVGID_6_);}
	.st7{fill:url(#SVGID_7_);}
	.st8{opacity:0.5;}
	.st9{fill:#FFFFFF;}
	.st10{fill:url(#SVGID_8_);}
	.st11{fill:url(#SVGID_9_);}
</style>
<path class="st0" d="M370.8,140.7 M371,141c0,88.5-0.2,140.2-0.2,153.6c-122.7,34.5-212.7,147.3-212.7,281
	c0,53.3,14.3,103.2,39.2,146.2c50.5,87.1,144.7,145.7,252.7,145.7c161.2,0,291.9-130.7,291.9-291.9c0-134.2-90.6-247.3-214-281.4
	c0-14.5,0-65.4,0-153.5"/>
<linearGradient id="SVGID_1_" gradientUnits="userSpaceOnUse" x1="386.9661" y1="538.045" x2="530.0497" y2="681.1287">
	<stop  offset="0" style="stop-color:#005C97"/>
	<stop  offset="1" style="stop-color:#363795"/>
</linearGradient>
<path class="st1" d="M723,546.2c0,0-9.7-57-19.4-38.9c-9.3,17.3-11.1,16.7-50,43.1c-38.9,26.4-61.2-34.7-104.2-41.7
	s-40.3,26.4-70.9,38.9c-30.6,12.5-68.1-18.1-119.5-30.6s-48.6,29.2-98.7,40.3s-76.3-31.9-76.3-31.9c-2.8,15.8-4.3,32-4.3,48.6
	c0,150.5,122,272.4,272.4,272.4s272.4-122,272.4-272.4C724.4,564.2,724.4,555.9,723,546.2z"/>
<linearGradient id="SVGID_2_" gradientUnits="userSpaceOnUse" x1="462.1076" y1="329.5869" x2="496.4219" y2="363.9012">
	<stop  offset="0" style="stop-color:#005C97"/>
	<stop  offset="1" style="stop-color:#363795"/>
</linearGradient>
<circle class="st2" cx="479.3" cy="346.7" r="24.3"/>
<linearGradient id="SVGID_3_" gradientUnits="userSpaceOnUse" x1="305.5789" y1="466.3112" x2="324.9816" y2="485.7138">
	<stop  offset="0" style="stop-color:#005C97"/>
	<stop  offset="1" style="stop-color:#363795"/>
</linearGradient>
<circle class="st3" cx="315.3" cy="476" r="13.7"/>
<linearGradient id="SVGID_4_" gradientUnits="userSpaceOnUse" x1="408.8225" y1="239.8225" x2="455.3615" y2="286.3615">
	<stop  offset="0" style="stop-color:#005C97"/>
	<stop  offset="1" style="stop-color:#363795"/>
</linearGradient>
<circle class="st4" cx="432.1" cy="263.1" r="32.9"/>
<linearGradient id="SVGID_5_" gradientUnits="userSpaceOnUse" x1="363.5891" y1="382.946" x2="397.1274" y2="416.4844">
	<stop  offset="0" style="stop-color:#005C97"/>
	<stop  offset="1" style="stop-color:#363795"/>
</linearGradient>
<circle class="st5" cx="380.4" cy="399.7" r="23.7"/>
<linearGradient id="SVGID_6_" gradientUnits="userSpaceOnUse" x1="541.4662" y1="447.9691" x2="565.1044" y2="471.6073">
	<stop  offset="0" style="stop-color:#005C97"/>
	<stop  offset="1" style="stop-color:#363795"/>
</linearGradient>
<circle class="st6" cx="553.3" cy="459.8" r="16.7"/>
<linearGradient id="SVGID_7_" gradientUnits="userSpaceOnUse" x1="443.4662" y1="487.9691" x2="467.1044" y2="511.6073">
	<stop  offset="0" style="stop-color:#005C97"/>
	<stop  offset="1" style="stop-color:#363795"/>
</linearGradient>
<circle class="st7" cx="455.3" cy="499.8" r="16.7"/>
<path class="st0" d="M562.3,141.2h-225c-4.4,0-7.9-3.6-7.9-7.9V85.9c0-4.4,3.6-7.9,7.9-7.9h225c4.4,0,7.9,3.6,7.9,7.9v47.4
	C570.2,137.7,566.6,141.2,562.3,141.2z"/>
<g class="st8">
	<path class="st9" d="M308.8,764.1c-2.2,5.2-4.1,10.6-5.6,16c-0.8,3.1-4.4,3.6-8,0.8c-51.7-39.9-90.2-107.9-88.4-186.1
		c0.1-5.4,3.9-11.7,8.3-13.9c7.5-3.7,15.3-7.1,23.1-10.1c4.5-1.7,7.4,1,6.7,5.9c-10.7,71.7,18.6,136.9,60.9,176.9
		C308.7,756.5,310,761.1,308.8,764.1z"/>
</g>
<linearGradient id="SVGID_8_" gradientUnits="userSpaceOnUse" x1="395.9023" y1="48.4964" x2="435.4023" y2="87.4964">
	<stop  offset="0" style="stop-color:#005C97"/>
	<stop  offset="1" style="stop-color:#363795"/>
</linearGradient>
<ellipse class="st10" cx="422.9" cy="75.1" rx="42.1" ry="42.1"/>
<linearGradient id="SVGID_9_" gradientUnits="userSpaceOnUse" x1="457.027" y1="143.2799" x2="506.7033" y2="192.9562">
	<stop  offset="0" style="stop-color:#005C97"/>
	<stop  offset="1" style="stop-color:#363795"/>
</linearGradient>
<ellipse class="st11" cx="481.9" cy="168.1" rx="35.1" ry="35.1"/>
</svg>
